<svg width="128" height="128" viewBox="0 0 128 128" fill="none" xmlns="http://www.w3.org/2000/svg">
<rect width="127.996" height="127.996" rx="25" fill="white"/>
<g clip-path="url(#clip0_132_115)">
<path d="M54.0965 71.8648C54.0965 82.2669 42.5569 93.1002 38.6819 96.446C38.3209 96.7175 37.8815 96.8643 37.4299 96.8643C36.9782 96.8643 36.5388 96.7175 36.1778 96.446C32.3028 93.1002 20.7632 82.2669 20.7632 71.8648C20.7632 67.4445 22.5191 63.2053 25.6447 60.0797C28.7703 56.9541 33.0096 55.1981 37.4299 55.1981C41.8501 55.1981 46.0894 56.9541 49.215 60.0797C52.3406 63.2053 54.0965 67.4445 54.0965 71.8648Z" stroke="#F45994" stroke-width="5.33272" stroke-linecap="round" stroke-linejoin="round"/>
<path d="M37.4297 78.1149C40.8815 78.1149 43.6797 75.3166 43.6797 71.8649C43.6797 68.4131 40.8815 65.6149 37.4297 65.6149C33.9779 65.6149 31.1797 68.4131 31.1797 71.8649C31.1797 75.3166 33.9779 78.1149 37.4297 78.1149Z" stroke="#F45994" stroke-width="5.33272" stroke-linecap="round" stroke-linejoin="round"/>
<path d="M53.2646 96.383H62.5539" stroke="#FFF4FB" stroke-width="2" stroke-linecap="round"/>
<path d="M61 83.4V83" stroke="#F45994" stroke-width="4" stroke-linecap="round"/>
<path d="M61 90C61 90.0066 61 94.4947 61 95" stroke="#F45994" stroke-width="4" stroke-linecap="round"/>
</g>
<path d="M111.097 56.6148C111.097 66.3927 99.5569 76.5761 95.6819 79.7212C95.3209 79.9763 94.8815 80.1143 94.4298 80.1143C93.9782 80.1143 93.5388 79.9763 93.1778 79.7212C89.3028 76.5761 77.7632 66.3927 77.7632 56.6148C77.7632 52.4597 79.5191 48.4749 82.6447 45.5368C85.7703 42.5987 90.0096 40.9481 94.4298 40.9481C98.8501 40.9481 103.089 42.5987 106.215 45.5368C109.341 48.4749 111.097 52.4597 111.097 56.6148Z" stroke="#F45994" stroke-width="5.33272" stroke-linecap="round" stroke-linejoin="round"/>
<path d="M94.4297 62.4899C97.8815 62.4899 100.68 59.8595 100.68 56.6149C100.68 53.3702 97.8815 50.7399 94.4297 50.7399C90.9779 50.7399 88.1797 53.3702 88.1797 56.6149C88.1797 59.8595 90.9779 62.4899 94.4297 62.4899Z" stroke="#F45994" stroke-width="5.33272" stroke-linecap="round" stroke-linejoin="round"/>
<path d="M94 80.0001L84 80L74 80" stroke="#F45994" stroke-width="4" stroke-linecap="round"/>
<path d="M71 74.4V74" stroke="#F45994" stroke-width="4" stroke-linecap="round"/>
<path d="M71 56V66.9769" stroke="#F45994" stroke-width="4" stroke-linecap="round"/>
<path d="M71 56V66.9769" stroke="#F45994" stroke-width="4" stroke-linecap="round"/>
<path d="M61.0019 65.0315C61.0019 65.042 61.0019 72.223 61.0019 73.0315C61.0019 73.84 61.0098 73.9526 61.0017 75.5C60.9935 77.0474 61.0187 75.5164 61.0019 77" stroke="#F45994" stroke-width="4" stroke-linecap="round"/>
<path d="M40 97C40.0152 97 42.338 97 44.4325 97C46.527 97 50.7002 97 55 97" stroke="#F45994" stroke-width="4" stroke-linecap="round"/>
<path d="M74.9967 29.4913C74.188 28.6609 73.2278 28.0022 72.171 27.5528C71.1142 27.1034 69.9815 26.872 68.8375 26.872C67.6936 26.872 66.5609 27.1034 65.504 27.5528C64.4472 28.0022 63.4871 28.6609 62.6784 29.4913L61 31.2138L59.3217 29.4913C57.6882 27.8148 55.4727 26.8729 53.1625 26.8729C50.8524 26.8729 48.6369 27.8148 47.0034 29.4913C45.3698 31.1678 44.4521 33.4416 44.4521 35.8125C44.4521 38.1834 45.3698 40.4573 47.0034 42.1338L61 56.4988L74.9967 42.1338C75.8058 41.3038 76.4476 40.3183 76.8855 39.2337C77.3234 38.1491 77.5487 36.9865 77.5487 35.8125C77.5487 34.6385 77.3234 33.4759 76.8855 32.3913C76.4476 31.3067 75.8058 30.3212 74.9967 29.4913Z" stroke="#F45994" stroke-width="4" stroke-linecap="round" stroke-linejoin="round"/>
<path d="M52.0703 27.4685L60.5703 31.4685L69.5703 26.9685L76.0703 32.9685V40.4685L60.5703 54.4685L56.5703 52.4685L45.5703 38.9685V31.4685L52.0703 27.4685Z" fill="#F45994"/>
<defs>
<clipPath id="clip0_132_115">
<rect width="50" height="50" fill="white" transform="translate(16.4297 52.0315)"/>
</clipPath>
</defs>
</svg>
