<svg width="64" height="64" viewBox="0 0 64 64" fill="none" xmlns="http://www.w3.org/2000/svg">
<path d="M0 31.9987C0 14.3263 14.3263 0 31.9987 0C49.6711 0 63.9974 14.3263 63.9974 31.9987C63.9974 49.6711 49.6711 63.9974 31.9987 63.9974C14.3263 63.9974 0 49.6711 0 31.9987Z" fill="#F45994"/>
<path d="M41.3245 34.6593C43.3107 32.713 45.3236 30.3802 45.3236 27.3275C45.3236 25.383 44.5512 23.5181 43.1762 22.1432C41.8013 20.7682 39.9364 19.9957 37.9919 19.9957C35.6457 19.9957 33.9927 20.6623 31.9932 22.6618C29.9936 20.6623 28.3406 19.9957 25.9944 19.9957C24.0499 19.9957 22.1851 20.7682 20.8101 22.1432C19.4351 23.5181 18.6627 25.383 18.6627 27.3275C18.6627 30.3935 20.6622 32.7263 22.6618 34.6593L31.9932 43.9906L41.3245 34.6593Z" fill="white" stroke="white" stroke-width="2.6661" stroke-linecap="round" stroke-linejoin="round"/>
</svg>
