<svg width="128" height="128" viewBox="0 0 128 128" fill="none" xmlns="http://www.w3.org/2000/svg">
<path d="M0 63.9981C0 28.6529 28.6529 0 63.9981 0C99.3433 0 127.996 28.6529 127.996 63.9981C127.996 99.3433 99.3433 127.996 63.9981 127.996C28.6529 127.996 0 99.3433 0 63.9981Z" fill="#FFF5FB"/>
<g clip-path="url(#clip0_20_342)">
<path d="M72.0964 56.8648C72.0964 67.2669 60.5568 78.1002 56.6818 81.446C56.3208 81.7175 55.8813 81.8643 55.4297 81.8643C54.978 81.8643 54.5386 81.7175 54.1776 81.446C50.3026 78.1002 38.763 67.2669 38.763 56.8648C38.763 52.4445 40.519 48.2053 43.6446 45.0797C46.7702 41.9541 51.0094 40.1981 55.4297 40.1981C59.85 40.1981 64.0892 41.9541 67.2148 45.0797C70.3404 48.2053 72.0964 52.4445 72.0964 56.8648Z" stroke="#F45994" stroke-width="5.33272" stroke-linecap="round" stroke-linejoin="round"/>
<path d="M55.4297 63.1149C58.8815 63.1149 61.6797 60.3166 61.6797 56.8649C61.6797 53.4131 58.8815 50.6149 55.4297 50.6149C51.9779 50.6149 49.1797 53.4131 49.1797 56.8649C49.1797 60.3166 51.9779 63.1149 55.4297 63.1149Z" stroke="#F45994" stroke-width="5.33272" stroke-linecap="round" stroke-linejoin="round"/>
<path d="M67.2646 80.3831H76.5538" stroke="#FFF4FB" stroke-width="2" stroke-linecap="round"/>
</g>
<path d="M52.4167 97.4129C52.4004 97.4129 54.3676 97.3749 57.8569 97.2495C60.3626 97.0267 62.3563 96.8337 63.9317 96.746C64.5355 96.7118 64.742 96.6986 64.9547 96.6851" stroke="#FFF4FB" stroke-width="2" stroke-linecap="round"/>
<path d="M49.4297 89.0315C49.45 89.0315 55.6244 88.8665 58.4297 89.0315L66.4297 89.0314" stroke="#F45994" stroke-width="5" stroke-linecap="round"/>
<path d="M74.4297 89.0425C74.4297 89.0396 74.4297 89.0368 76.3628 89.0339C78.296 89.031 82.1622 89.0281 86.2422 89.0422" stroke="#F45994" stroke-width="5" stroke-linecap="round"/>
<path d="M95.4297 89.0315H97.9297C97.9297 89.0315 95.4297 89.0315 95.2647 89.0315C95.0997 89.0315 94.7697 89.0315 94.4297 89.0315" stroke="#F45994" stroke-width="5" stroke-linecap="round"/>
<defs>
<clipPath id="clip0_20_342">
<rect width="50" height="50" fill="white" transform="translate(30.4297 36.0315)"/>
</clipPath>
</defs>
</svg>
