<svg width="128" height="128" viewBox="0 0 128 128" fill="none" xmlns="http://www.w3.org/2000/svg">
<path d="M0 63.9981C0 28.6529 28.6529 0 63.9981 0C99.3433 0 127.996 28.6529 127.996 63.9981C127.996 99.3433 99.3433 127.996 63.9981 127.996C28.6529 127.996 0 99.3433 0 63.9981Z" fill="#FFF5FB"/>
<path d="M85.3235 58.6655C85.3235 71.9786 70.5545 85.8437 65.5951 90.1258C65.1331 90.4732 64.5707 90.6611 63.9926 90.6611C63.4145 90.6611 62.8521 90.4732 62.3901 90.1258C57.4307 85.8437 42.6617 71.9786 42.6617 58.6655C42.6617 53.0082 44.9091 47.5826 48.9094 43.5823C52.9097 39.5819 58.3353 37.3346 63.9926 37.3346C69.6499 37.3346 75.0755 39.5819 79.0758 43.5823C83.0761 47.5826 85.3235 53.0082 85.3235 58.6655Z" stroke="#F45994" stroke-width="5.33272" stroke-linecap="round" stroke-linejoin="round"/>
<path d="M63.9926 66.6645C68.4104 66.6645 71.9917 63.0832 71.9917 58.6655C71.9917 54.2477 68.4104 50.6664 63.9926 50.6664C59.5748 50.6664 55.9935 54.2477 55.9935 58.6655C55.9935 63.0832 59.5748 66.6645 63.9926 66.6645Z" stroke="#F45994" stroke-width="5.33272" stroke-linecap="round" stroke-linejoin="round"/>
</svg>
