<svg width="128" height="128" viewBox="0 0 128 128" fill="none" xmlns="http://www.w3.org/2000/svg">
<path d="M0 63.9981C0 28.6529 28.6529 0 63.9981 0C99.3433 0 127.996 28.6529 127.996 63.9981C127.996 99.3433 99.3433 127.996 63.9981 127.996C28.6529 127.996 0 99.3433 0 63.9981Z" fill="#FFF5FB"/>
<g clip-path="url(#clip0_20_402)">
<path d="M58.0963 72.8648C58.0963 83.2669 46.5568 94.1002 42.6818 97.446C42.3208 97.7175 41.8813 97.8643 41.4297 97.8643C40.978 97.8643 40.5386 97.7175 40.1776 97.446C36.3026 94.1002 24.763 83.2669 24.763 72.8648C24.763 68.4445 26.5189 64.2053 29.6446 61.0797C32.7702 57.9541 37.0094 56.1981 41.4297 56.1981C45.8499 56.1981 50.0892 57.9541 53.2148 61.0797C56.3404 64.2053 58.0963 68.4445 58.0963 72.8648Z" stroke="#F45994" stroke-width="5.33272" stroke-linecap="round" stroke-linejoin="round"/>
<path d="M41.4297 79.1149C44.8815 79.1149 47.6797 76.3166 47.6797 72.8649C47.6797 69.4131 44.8815 66.6149 41.4297 66.6149C37.9779 66.6149 35.1797 69.4131 35.1797 72.8649C35.1797 76.3166 37.9779 79.1149 41.4297 79.1149Z" stroke="#F45994" stroke-width="5.33272" stroke-linecap="round" stroke-linejoin="round"/>
<path d="M53.2645 96.3831H62.5537" stroke="#FFF4FB" stroke-width="2" stroke-linecap="round"/>
</g>
<path d="M104.096 45.6148C104.096 55.3927 92.5567 65.5761 88.6817 68.7212C88.3208 68.9763 87.8813 69.1143 87.4297 69.1143C86.978 69.1143 86.5386 68.9763 86.1776 68.7212C82.3026 65.5761 70.763 55.3927 70.763 45.6148C70.763 41.4597 72.5189 37.4749 75.6446 34.5368C78.7702 31.5987 83.0094 29.9481 87.4297 29.9481C91.8499 29.9481 96.0892 31.5987 99.2148 34.5368C102.34 37.4749 104.096 41.4597 104.096 45.6148Z" stroke="#F45994" stroke-width="5.33272" stroke-linecap="round" stroke-linejoin="round"/>
<path d="M87.4297 51.4899C90.8815 51.4899 93.6797 48.8595 93.6797 45.6149C93.6797 42.3702 90.8815 39.7399 87.4297 39.7399C83.9779 39.7399 81.1797 42.3702 81.1797 45.6149C81.1797 48.8595 83.9779 51.4899 87.4297 51.4899Z" stroke="#F45994" stroke-width="5.33272" stroke-linecap="round" stroke-linejoin="round"/>
<path d="M101.661 55.0281V70.5128" stroke="#F45994" stroke-width="5" stroke-linecap="round"/>
<path d="M52.4167 97.4129C52.4004 97.4129 54.3676 97.3749 57.8569 97.2495C60.3626 97.0267 62.3563 96.8337 63.9317 96.746C64.5355 96.7118 64.742 96.6986 64.9547 96.6851" stroke="#FFF4FB" stroke-width="2" stroke-linecap="round"/>
<path d="M49.1688 100.393C49.1878 100.393 49.2068 100.393 51.8314 100.402C54.4559 100.41 59.6853 100.426 65.0732 100.443" stroke="#F45994" stroke-width="5" stroke-linecap="round"/>
<path d="M73.5433 100.509C73.5433 100.506 73.5433 100.503 75.4765 100.5C77.4096 100.497 81.2759 100.494 85.3559 100.509" stroke="#F45994" stroke-width="5" stroke-linecap="round"/>
<path d="M86.3864 84.5242C86.3864 84.5347 86.3864 84.5452 86.3864 85.3537C86.3864 86.1623 86.3864 87.7685 86.3783 89.316C86.3701 90.8634 86.3538 92.3033 86.337 93.7869" stroke="#F45994" stroke-width="5" stroke-linecap="round"/>
<path d="M87.4297 78.0315C87.4357 78.0315 99.7296 78.0315 101.43 78.0315" stroke="#F45994" stroke-width="5" stroke-linecap="round"/>
<defs>
<clipPath id="clip0_20_402">
<rect width="50" height="50" fill="white" transform="translate(16.4297 52.0315)"/>
</clipPath>
</defs>
</svg>
