<svg width="64" height="64" viewBox="0 0 64 64" fill="none" xmlns="http://www.w3.org/2000/svg">
<path d="M0 31.9994C0 14.3266 14.3266 0 31.9994 0C49.6722 0 63.9989 14.3266 63.9989 31.9994C63.9989 49.6722 49.6722 63.9989 31.9994 63.9989C14.3266 63.9989 0 49.6722 0 31.9994Z" fill="#F45994"/>
<path d="M37.3327 43.9992V41.3326C37.3327 39.9182 36.7708 38.5616 35.7707 37.5614C34.7705 36.5613 33.4139 35.9994 31.9995 35.9994H23.9996C22.5852 35.9994 21.2286 36.5613 20.2285 37.5614C19.2283 38.5616 18.6664 39.9182 18.6664 41.3326V43.9992" stroke="white" stroke-width="2.66662" stroke-linecap="round" stroke-linejoin="round"/>
<path d="M27.9995 30.6661C30.945 30.6661 33.3327 28.2784 33.3327 25.3329C33.3327 22.3874 30.945 19.9996 27.9995 19.9996C25.054 19.9996 22.6663 22.3874 22.6663 25.3329C22.6663 28.2784 25.054 30.6661 27.9995 30.6661Z" stroke="white" stroke-width="2.66662" stroke-linecap="round" stroke-linejoin="round"/>
<path d="M41.3326 26.6662V34.6661" stroke="white" stroke-width="2.66662" stroke-linecap="round" stroke-linejoin="round"/>
<path d="M45.3326 30.6661H37.3328" stroke="white" stroke-width="2.66662" stroke-linecap="round" stroke-linejoin="round"/>
</svg>
