<svg width="128" height="128" viewBox="0 0 128 128" fill="none" xmlns="http://www.w3.org/2000/svg">
<path d="M10.6666 117.333V21.3333C10.6666 18.4 11.7111 15.8888 13.8 13.8C15.8888 11.7111 18.4 10.6666 21.3333 10.6666H106.667C109.6 10.6666 112.111 11.7111 114.2 13.8C116.289 15.8888 117.333 18.4 117.333 21.3333V85.3333C117.333 88.2666 116.289 90.7777 114.2 92.8666C112.111 94.9555 109.6 96 106.667 96H32L10.6666 117.333Z" fill="#FDF2F8"/>
<path d="M86.5 31.5L61.75 56.25M86.5 31.5L70.75 76.5L61.75 56.25M86.5 31.5L41.5 47.25L61.75 56.25" stroke="#F45994" stroke-width="4" stroke-linecap="round" stroke-linejoin="round"/>
</svg>
